<svg width="256" height="256" viewBox="0 0 256 256" xmlns="http://www.w3.org/2000/svg" role="img" aria-labelledby="title desc">
  <title id="title">BarTender App Icon</title>
  <desc id="desc">A stylized beer glass with foam and a tap handle on a dark round background.</desc>
  <defs>
    <linearGradient id="bg" x1="0" y1="0" x2="1" y2="1">
      <stop offset="0%" stop-color="#111827" />
      <stop offset="100%" stop-color="#1f2937" />
    </linearGradient>
    <linearGradient id="beer" x1="0" y1="0" x2="0" y2="1">
      <stop offset="0%" stop-color="#fbbf24" />
      <stop offset="100%" stop-color="#d97706" />
    </linearGradient>
    <linearGradient id="glass" x1="0" y1="0" x2="0" y2="1">
      <stop offset="0%" stop-color="#f8fafc" stop-opacity="0.95" />
      <stop offset="100%" stop-color="#cbd5e1" stop-opacity="0.7" />
    </linearGradient>
  </defs>

  <circle cx="128" cy="128" r="120" fill="url(#bg)" />

  <rect x="72" y="56" width="112" height="14" rx="7" fill="#9ca3af" />
  <rect x="170" y="52" width="48" height="16" rx="8" fill="#e5e7eb" />
  <circle cx="218" cy="60" r="7" fill="#f59e0b" />

  <rect x="74" y="84" width="108" height="128" rx="18" fill="url(#glass)" />
  <rect x="84" y="108" width="88" height="88" rx="10" fill="url(#beer)" />

  <circle cx="92" cy="101" r="11" fill="#f8fafc" />
  <circle cx="109" cy="94" r="13" fill="#f8fafc" />
  <circle cx="127" cy="92" r="14" fill="#f8fafc" />
  <circle cx="145" cy="95" r="12" fill="#f8fafc" />
  <circle cx="160" cy="102" r="10" fill="#f8fafc" />

  <rect x="176" y="116" width="24" height="70" rx="10" fill="#e5e7eb" />
  <rect x="184" y="130" width="8" height="42" rx="4" fill="#9ca3af" />

  <path d="M118 128v64" stroke="#ffffff" stroke-opacity="0.38" stroke-width="7" stroke-linecap="round" />
  <path d="M136 134v58" stroke="#ffffff" stroke-opacity="0.22" stroke-width="5" stroke-linecap="round" />
</svg>
